<svg id="Desktop" xmlns="http://www.w3.org/2000/svg" xmlns:xlink="http://www.w3.org/1999/xlink" viewBox="0 0 1055 588"><defs><style>.cls-1{fill:none;}.cls-2{clip-path:url(#clip-path);}.cls-3{fill:#fed714;}.cls-4{fill:#7fc423;}.cls-5{fill:#edefed;}</style><clipPath id="clip-path"><rect class="cls-1" x="70.12" y="45" width="945.71" height="505"/></clipPath></defs><g class="cls-2"><path class="cls-3" d="M169.88,290.08a15.77,15.77,0,1,0,15.77,15.77,15.77,15.77,0,0,0-15.77-15.77Zm126.15,0a15.77,15.77,0,1,0,15.77,15.77A15.77,15.77,0,0,0,296,290.08Zm-63.08,0a15.77,15.77,0,1,0,15.77,15.77A15.77,15.77,0,0,0,233,290.08Z"/><path class="cls-4" d="M70,45V96.43H395.93V45ZM343.32,203.89V347.43A111.3,111.3,0,0,1,254.7,447l-20.55,4.2,0,45.83c-91.37-11.53-111.48-85.59-111.48-148.55l0-144.59ZM71.2,348.49C71.2,474.67,141.72,550,259.83,550h25.7l0-58.3A162.51,162.51,0,0,0,394.67,350.48l.08-198H71.18l0,196Z"/></g><polygon class="cls-5" points="795.2 178.66 795.2 236.92 940.26 236.92 743.4 475.4 818.97 475.4 1015.83 236.92 1015.83 178.66 795.2 178.66 795.2 178.66"/><path class="cls-5" d="M606.1,356.16h74.21v31.28a90.11,90.11,0,1,1,0-120.82l37.42-45.13a148.83,148.83,0,0,0-104.29-42.83,148.37,148.37,0,0,0,0,296.74,148.5,148.5,0,0,0,125.12-68.65V297.9H606.1v58.26Z"/></svg>