<svg id="OBJECTS" xmlns="http://www.w3.org/2000/svg" viewBox="0 0 511.78 108.53"><defs><style>.cls-1,.cls-2{fill:#fff;}.cls-1{fill-rule:evenodd;}</style></defs><path class="cls-1" d="M35.59,48.31A9.49,9.49,0,1,1,26.1,57.8a9.49,9.49,0,0,1,9.49-9.49Zm82,0a9.49,9.49,0,1,1-9.48,9.48,9.48,9.48,0,0,1,9.48-9.48Z"/><path class="cls-1" d="M117.6,35.5A22.3,22.3,0,1,1,95.3,57.8a22.3,22.3,0,0,1,22.3-22.3Zm-82,0a22.3,22.3,0,1,1-22.3,22.3,22.31,22.31,0,0,1,22.3-22.3Zm41,35.93,9.53-38.32c-3.15.21-6.33.63-9.53.63s-6.38-.42-9.53-.63L76.6,71.43Zm-10.5,1A33.83,33.83,0,1,1,26.46,25.22a98.2,98.2,0,0,1-22.1-11.7L11.62,3.2A129.42,129.42,0,0,0,76.76,21.37,129.45,129.45,0,0,0,141.9,3.2l6.94,10.32a99,99,0,0,1-22,11.72A33.84,33.84,0,1,1,87.29,72.83l-10.53,32.5L66.1,72.43Z"/><path class="cls-2" d="M290.38,63.52c0,8.3,4.16,10.32,14.53,10.32h13.81c15.15,0,18.54-1.7,18.54-12,0-11.15-4.11-12.26-21.82-12.21-12.22,0-13.61,0-13.61-3.39,0-2.06,1.75-3,4.31-3h12.63c5.24,0,5.55,1.17,5.55,4h11.4V46c0-6.71-1.23-11.31-14.38-11.31H305.42c-14.37,0-15,5.34-15,12.26,0,9.42,1.95,11.53,19.1,11.53,14.69,0,16,.21,16,3.55,0,3-2.46,3.22-4.88,3.22h-14c-3.29,0-4.88-.32-4.93-4.39h-11.4v2.65Zm51.37-3.91c0,9.62,4.78,14.23,15.25,14.23h16.33c10.48,0,15.25-4.61,15.25-14.23V34.7h-11.4V57c0,4.92-1.69,6.85-6.36,6.85h-11.3c-4.67,0-6.37-1.93-6.37-6.85V34.7h-11.4V59.61ZM390.1,73.84h12.73l3.34-6.92h23.11l3.54,6.92H445.5L425.07,34.7H410.23L390.1,73.84Zm27.52-30.06,7.4,14.7H410.43l7.19-14.7ZM447,73.84h11.09V45.73h.11l14.94,28.11h8.52l14.94-28.11h.11V73.84h11.09V34.7H490.31L477.42,59.89,464.53,34.7H447V73.84Z"/><path class="cls-2" d="M273.87,73.84h11.4V34.7h-11.4V73.84Zm-56.36,0h11.4V45.4h.1l21.41,28.44h17.66V34.7H256.69V63.13h-.11L235.17,34.7H217.51V73.84Zm-52-14.23c0,9.62,4.77,14.23,15.25,14.23H197.1c10.47,0,15.25-4.61,15.25-14.23V34.7H201V57c0,4.92-1.7,6.85-6.37,6.85h-11.3c-4.67,0-6.36-1.93-6.36-6.85V34.7h-11.4V59.61Z"/></svg>